<?xml version="1.0" encoding="utf-8"?>
<!-- Generator: Adobe Illustrator 23.1.0, SVG Export Plug-In . SVG Version: 6.00 Build 0)  -->
<svg version="1.1" id="Calque_1" xmlns="http://www.w3.org/2000/svg" xmlns:xlink="http://www.w3.org/1999/xlink" x="0px" y="0px"
	 viewBox="0 0 17.9 524.2" style="enable-background:new 0 0 17.9 524.2;" xml:space="preserve">
<style type="text/css">
	.st0{fill-rule:evenodd;clip-rule:evenodd;fill:rgb(183, 10, 10);}
</style>
<g>
	<g>
		<path id="path_80f4eac95e35e05156c896c5d24e0439" class="st0" d="M16.7,510.4c-1.6,1.6-3.4,1.9-5.7,0.9c-1-0.4-1.9-0.7-1.9-0.6
			c-0.1,0.1,0,1,0.2,2c0.6,3.3,0.5,7-0.4,8.6c-1.4,2.7-4.7,3.7-6.7,2c-1.6-1.4-1.1-4.2,0.8-4.2c1,0,1.4,0.9,0.5,1.2
			c-0.4,0.1-0.7,0.5-0.7,0.9c0,1.9,2.7,2.2,4.1,0.5c2-2.4,1.5-4.4-2.7-12.1c-1.4-2.5-2.8-5.6-3.2-6.8c-1.7-5.6-0.1-11,4.3-14.2
			c0.9-0.7,1.8-1.2,1.9-1.2c0.1,0-0.2,1.1-0.6,2.4c-2.9,8.5,2.2,21.5,8,20.4c2-0.4,2.9-2.4,1.7-4.1c-0.7-1-2.2-1-2.7-0.1
			c-0.3,0.6-0.3,0.8,0.3,0.9c1,0.3,0.9,0.8-0.2,0.8c-1.2,0-1.9-1.4-1.3-2.5c0.6-1.2,2-1.6,3.4-1c1.5,0.6,2,1.5,2,3.4
			C17.9,508.9,17.7,509.4,16.7,510.4z M17,19.2c-0.7,0.7-1.2,0.9-2.4,0.8c-1.2-0.1-1.6-0.3-2.1-1.1c-0.7-1.3-0.2-2.2,1.3-2.3l1-0.1
			l-0.8,0.6c-0.7,0.6-0.8,0.7-0.3,1.3c0.4,0.5,0.7,0.6,1.5,0.4c2.1-0.5,2.1-3.5,0.1-4.5C9.5,11.7,3.5,25.6,6.6,34.5
			C7,35.9,7.3,37,7.2,37c-0.1,0-1-0.6-1.9-1.3C1.8,33.1,0.1,29.4,0.4,25c0.2-3.2,1-5.3,4.1-10.8c3.1-5.6,4-8.2,3.4-9.9
			C7.2,1.9,4.8,0.6,3.4,1.8C2.6,2.4,2.7,3.6,3.6,3.9c1,0.4,0.3,1.3-0.8,1C1.8,4.7,1,3.2,1.3,2.3C2.5-1,7.2-0.7,8.9,2.9
			c0.8,1.6,1,5.4,0.4,8.6c-0.2,1-0.3,2-0.2,2c0.1,0.1,0.6-0.1,1.2-0.4c3.7-1.9,7.7-0.1,7.7,3.6C17.9,18,17.7,18.6,17,19.2z
			 M10.8,263.4c-2.1,1.2-2.8,2.1-3.6,5.1c-0.3,1.2-0.8,2.2-0.9,2.1c-0.2-0.1-0.6-1.1-0.9-2.2c-0.8-2.8-1.5-3.8-3.6-4.9
			c-1-0.5-1.8-1.2-1.8-1.4c0-0.2,0.5-0.6,1-0.8c2-0.8,3.5-2.6,4.2-4.9c0.3-1.2,0.7-2.3,0.7-2.6c0.3-0.8,0.8-0.2,1,1.3
			c0.5,2.6,1.4,4.2,3.3,5.4c0.9,0.6,1.9,1.1,2,1.1C13.1,261.6,12.3,262.6,10.8,263.4z M8.5,276.3c-0.6,1.3-2.2,1.7-3.4,1.1
			c-2.3-1.3-1.6-4.4,1-4.6C8.1,272.6,9.4,274.5,8.5,276.3z M8.7,249.7c-0.7,1.8-3,2.4-4.2,1.1c-1.4-1.6-0.3-4.3,1.8-4.3
			C7.8,246.5,9.2,248.3,8.7,249.7z M7.7,282.5c-1.3,1.3-3.4,0.3-3.4-1.6c0-1.2,0.7-1.9,2-1.9c0.5,0,1.1,0.2,1.4,0.4
			C8.4,280.1,8.4,281.8,7.7,282.5z M7.8,244.6c-0.2,0.2-0.9,0.4-1.5,0.4c-1.4,0-2-0.6-2-1.8c0-1.2,0.8-2.1,2-2.1
			c0.5,0,1.1,0.3,1.4,0.6C8.3,242.3,8.4,244,7.8,244.6z M7.5,484.6c-0.6,0.6-1.8,0.6-2.4,0c-0.5-0.5-0.6-2-0.1-2.3
			c0.5-0.3,0.5-194.9,0-195.2c-0.2-0.1-0.4-0.6-0.4-1.1c0-1.2,1.4-1.8,2.5-1.3c0.8,0.4,1.1,2,0.4,2.4c-0.2,0.1-0.4,33.1-0.4,97.6
			c0,64.5,0.1,97.4,0.4,97.6C8,482.7,8,484.1,7.5,484.6z M7.3,239.1c-0.7,0.7-1,0.7-2,0.2c-0.7-0.4-1-1.9-0.3-2.3
			c0.5-0.3,0.5-194.9,0-195.2c-0.5-0.3-0.5-1.7,0.1-2.3c0.6-0.6,1.8-0.6,2.4,0c0.5,0.5,0.6,2,0.1,2.3C7,42.1,7,236.7,7.5,237
			C8.1,237.3,8,238.5,7.3,239.1z"/>
	</g>
</g>
</svg>
